<svg xmlns="http://www.w3.org/2000/svg" width="24" height="16" viewBox="0 0 24 16">
  <rect width="24" height="16" fill="#B22234"/>
  <rect y="1.23" width="24" height="1.23" fill="white"/>
  <rect y="3.69" width="24" height="1.23" fill="white"/>
  <rect y="6.15" width="24" height="1.23" fill="white"/>
  <rect y="8.62" width="24" height="1.23" fill="white"/>
  <rect y="11.08" width="24" height="1.23" fill="white"/>
  <rect y="13.54" width="24" height="1.23" fill="white"/>
  <rect width="9.6" height="8.62" fill="#3C3B6E"/>
  <g fill="white">
    <circle cx="1.2" cy="0.92" r="0.46"/>
    <circle cx="2.4" cy="0.92" r="0.46"/>
    <circle cx="3.6" cy="0.92" r="0.46"/>
    <circle cx="4.8" cy="0.92" r="0.46"/>
    <circle cx="6" cy="0.92" r="0.46"/>
    <circle cx="7.2" cy="0.92" r="0.46"/>
    <circle cx="8.4" cy="0.92" r="0.46"/>
    <circle cx="1.8" cy="1.85" r="0.46"/>
    <circle cx="3" cy="1.85" r="0.46"/>
    <circle cx="4.2" cy="1.85" r="0.46"/>
    <circle cx="5.4" cy="1.85" r="0.46"/>
    <circle cx="6.6" cy="1.85" r="0.46"/>
    <circle cx="7.8" cy="1.85" r="0.46"/>
    <circle cx="1.2" cy="2.77" r="0.46"/>
    <circle cx="2.4" cy="2.77" r="0.46"/>
    <circle cx="3.6" cy="2.77" r="0.46"/>
    <circle cx="4.8" cy="2.77" r="0.46"/>
    <circle cx="6" cy="2.77" r="0.46"/>
    <circle cx="7.2" cy="2.77" r="0.46"/>
    <circle cx="8.4" cy="2.77" r="0.46"/>
    <circle cx="1.8" cy="3.69" r="0.46"/>
    <circle cx="3" cy="3.69" r="0.46"/>
    <circle cx="4.2" cy="3.69" r="0.46"/>
    <circle cx="5.4" cy="3.69" r="0.46"/>
    <circle cx="6.6" cy="3.69" r="0.46"/>
    <circle cx="7.8" cy="3.69" r="0.46"/>
    <circle cx="1.2" cy="4.62" r="0.46"/>
    <circle cx="2.4" cy="4.62" r="0.46"/>
    <circle cx="3.6" cy="4.62" r="0.46"/>
    <circle cx="4.8" cy="4.62" r="0.46"/>
    <circle cx="6" cy="4.62" r="0.46"/>
    <circle cx="7.2" cy="4.62" r="0.46"/>
    <circle cx="8.4" cy="4.62" r="0.46"/>
    <circle cx="1.8" cy="5.54" r="0.46"/>
    <circle cx="3" cy="5.54" r="0.46"/>
    <circle cx="4.2" cy="5.54" r="0.46"/>
    <circle cx="5.4" cy="5.54" r="0.46"/>
    <circle cx="6.6" cy="5.54" r="0.46"/>
    <circle cx="7.8" cy="5.54" r="0.46"/>
    <circle cx="1.2" cy="6.46" r="0.46"/>
    <circle cx="2.4" cy="6.46" r="0.46"/>
    <circle cx="3.6" cy="6.46" r="0.46"/>
    <circle cx="4.8" cy="6.46" r="0.46"/>
    <circle cx="6" cy="6.46" r="0.46"/>
    <circle cx="7.2" cy="6.46" r="0.46"/>
    <circle cx="8.4" cy="6.46" r="0.46"/>
    <circle cx="1.8" cy="7.38" r="0.46"/>
    <circle cx="3" cy="7.38" r="0.46"/>
    <circle cx="4.2" cy="7.38" r="0.46"/>
    <circle cx="5.4" cy="7.38" r="0.46"/>
    <circle cx="6.6" cy="7.38" r="0.46"/>
    <circle cx="7.8" cy="7.38" r="0.46"/>
  </g>
</svg>
